<?xml version="1.0" encoding="utf-8"?>
<!-- Generator: Adobe Illustrator 19.2.0, SVG Export Plug-In . SVG Version: 6.00 Build 0)  -->
<svg version="1.1" id="Layer_2" xmlns="http://www.w3.org/2000/svg" xmlns:xlink="http://www.w3.org/1999/xlink" x="0px" y="0px"
	 viewBox="0 0 1078 858.6" style="enable-background:new 0 0 1078 858.6;" xml:space="preserve">
<style type="text/css">
	.st0{fill:#2CABF2;}
	.st1{fill:#FFFFFF;enable-background:new    ;}
	.st2{opacity:0.1;enable-background:new    ;}
	.st3{fill:#504F60;}
	.st4{fill:#EED1D7;}
	.st5{fill:#CCB2BB;}
	.st6{fill:#F89898;}
	.st7{opacity:5.000000e-002;}
	.st8{fill:url(#SVGID_1_);}
	.st9{fill:url(#SVGID_2_);}
	.st10{fill:url(#SVGID_3_);}
	.st11{fill:url(#SVGID_4_);}
	.st12{fill:#EF91A3;}
	.st13{fill:#5D526E;}
	.st14{fill:#DFECFB;}
	.st15{fill:#572142;}
	.st16{fill:#FFC1CD;}
	.st17{fill:#5F5470;}
	.st18{opacity:5.000000e-002;enable-background:new    ;}
	.st19{fill:#FF808C;}
	.st20{fill:#B46D86;}
	.st21{display:none;opacity:5.000000e-002;}
	.st22{display:inline;}
</style>
<g id="Layer_3">
	<rect y="-11" class="st0" width="1079" height="870.6"/>
</g>
<path class="st1" d="M964.8,470.6c-39.2,65.3-33,153.7-16.9,223.2c5.4,23.3,11.6,47.8,6.5,74c-6.3,32-28.1,57.4-50.1,71.9
	c-40.1,26.6-85.5,26.4-118.2-0.5c-28.3-23.3-46.6-64.2-75.6-86.2c-48.4-36.8-115.6-13.4-174.1,22.2c-41.4,25.2-87,57-124.8,39.8
	c-26.6-12.2-42.9-47.2-50.2-85.4c-3.6-18.4-5.6-38.6-14.1-52.6c-5-8.3-12-13.8-19.3-18.3c-66.2-41.1-156.8-5-220.5-51.7
	c-43.1-31.5-67-97.4-74.3-168.1s0.2-146.5,9.4-221.1C49.2,164.7,57.9,107.9,85,64.4c28.7-45.9,73.5-66.8,112.1-63
	s71.9,29,100.5,59.9c35.7,38.6,67.8,88.1,114.5,100.1c31.8,8.2,66.7-2.1,100.7-8.1c56.7-10.1,112.5-8,167.9-5.1
	c53,2.8,106.4,6.3,155.6,25.3c34.8,13.4,61.4,41.8,93.8,60.1c21.2,11.9,45.2,13.2,64.8,29.2c24.2,19.7,44.9,56.4,34.6,103.1
	C1019.9,410.3,985.6,435.9,964.8,470.6z"/>
<path class="st0" d="M173.7,444c0,0,86,16,148-68c0,0-52-51-88-40s-60,76-60,76V444z"/>
<path class="st2" d="M173.7,444c0,0,86,16,148-68c0,0-52-51-88-40s-60,76-60,76V444z"/>
<polygon class="st3" points="212.7,376 300.7,557 321.7,546 230.7,376 "/>
<path class="st0" d="M321.7,376c-15.9,0.2-31.8,2.3-47.2,6.3c-21.3,5.6-41.5,14.6-59.9,26.7c-26.6,17.3-40.9,35-40.9,35
	c-63.4-111.5-49.3-312.7-48.1-328.1v0c0-0.2,0-0.4,0-0.6c0-0.2,0-0.3,0-0.3C167.7,115,321.7,376,321.7,376z"/>
<path class="st4" d="M1077.1,592.8L979.7,619c0,0-150,3-202,48s-203,40-207,40s-60-49-162,2s-224,19-224,19s-127,53-163,35
	s-14-42-14-42s74-57,17-120s10-63,10-63h192.8c15.7,0.1,31.3-3.6,45.2-10.9c15.1-8,32.8-5.5,44.6-2.1c10.3,2.9,21,3.5,31.5,1.7
	c96.8-16.4,158.5-11.7,184.2-8.1c10.7,1.5,21.5,1.7,32.2,0.8c32.7-2.8,100.6-8.9,137.4-13.3c10.1-1.2,17.9-2.3,22-3.1
	c11.4-2.4,65.2,8.1,119.7,22.1c60.2,15.5,121.1,35.3,126.3,46.9c7.2,15.9,71.1,16.7,105.8,15.8c1.4,0,2.5,1.1,2.6,2.5
	C1079,591.4,1078.2,592.4,1077.1,592.8z"/>
<path class="st5" d="M697.7,666l-24,5c0,0-95-51-108-34"/>
<path class="st5" d="M673.7,520c0,0-154-31-218,6"/>
<path class="st2" d="M557.8,575.7c0,0-38.5-15.7-36.8-6.7s21.4,18,21.4,18s-38.8-3.4-37.1,10.1c0,0,44.4-1.1,42.7,9s0,23.6,7.3,20.8
	s11.8-35.4,31.5-19.7s16.9-16.3-7.3-19.1c0,0,12.9-9.6,11.8-14.1S557.8,575.7,557.8,575.7z"/>
<path class="st6" d="M557.2,574c0,0-38.5-15.7-36.8-6.7s21.4,18,21.4,18s-38.8-3.4-37.1,10.1c0,0,44.4-1.1,42.7,9s0,23.6,7.3,20.8
	s11.8-35.4,31.5-19.7s16.9-16.3-7.3-19.1c0,0,12.9-9.6,11.8-14.1S557.2,574,557.2,574z"/>
<path class="st5" d="M856.7,605c0,0-55-17-60-14"/>
<path class="st5" d="M429.7,620c0,0,74-21,102-5"/>
<path class="st4" d="M552.2,534.5c0,0,20-59,60-47s70,43,70,43l-130,10V534.5z"/>
<path class="st5" d="M117.2,600.5c0,0,31,13,83,8s93,26,93,26"/>
<g class="st7">
	
		<linearGradient id="SVGID_1_" gradientUnits="userSpaceOnUse" x1="304.2345" y1="476.5634" x2="304.2345" y2="477.9342" gradientTransform="matrix(1 0 0 -1 -61.0061 837.288)">
		<stop  offset="0" style="stop-color:#808080;stop-opacity:0.25"/>
		<stop  offset="0.5351" style="stop-color:#808080;stop-opacity:0.12"/>
		<stop  offset="1" style="stop-color:#808080;stop-opacity:0.1"/>
	</linearGradient>
	<path class="st8" d="M243.1,360.7c0.2-0.4,0.4-0.9,0.3-1.4C243.2,359.8,243.1,360.3,243.1,360.7z"/>
</g>
<g class="st7">
	
		<linearGradient id="SVGID_2_" gradientUnits="userSpaceOnUse" x1="304.2345" y1="477.2518" x2="304.2345" y2="478.6227" gradientTransform="matrix(1 0 0 -1 -61.0061 837.288)">
		<stop  offset="0" style="stop-color:#808080;stop-opacity:0.25"/>
		<stop  offset="0.5351" style="stop-color:#808080;stop-opacity:0.12"/>
		<stop  offset="1" style="stop-color:#808080;stop-opacity:0.1"/>
	</linearGradient>
	<path class="st9" d="M243.1,360c0.2-0.4,0.4-0.9,0.3-1.4C243.2,359.1,243.1,359.6,243.1,360z"/>
</g>
<g class="st7">
	
		<linearGradient id="SVGID_3_" gradientUnits="userSpaceOnUse" x1="356.1419" y1="291.7149" x2="356.1419" y2="325.8044" gradientTransform="matrix(1 0 0 -1 -61.0061 837.288)">
		<stop  offset="0" style="stop-color:#808080;stop-opacity:0.25"/>
		<stop  offset="0.5351" style="stop-color:#808080;stop-opacity:0.12"/>
		<stop  offset="1" style="stop-color:#808080;stop-opacity:0.1"/>
	</linearGradient>
	<path class="st10" d="M302.2,532.8c-2.2,0.9-7.3,5.8-14,12.8c-2.1-14-3.5-26.6-2.6-31.9c0.1-0.8,0.3-1.5,0.8-2.2
		c4-0.3,12.2,9.8,18.7,18.9C303.2,531.8,302.2,532.8,302.2,532.8z"/>
</g>
<g class="st7">
	
		<linearGradient id="SVGID_4_" gradientUnits="userSpaceOnUse" x1="267.1038" y1="412.917" x2="267.1038" y2="412.917" gradientTransform="matrix(1 0 0 -1 0 858)">
		<stop  offset="0" style="stop-color:#808080;stop-opacity:0.25"/>
		<stop  offset="0.5351" style="stop-color:#808080;stop-opacity:0.12"/>
		<stop  offset="1" style="stop-color:#808080;stop-opacity:0.1"/>
	</linearGradient>
	<polygon class="st11" points="267.1,445.1 267.1,445.1 267.1,445.1 	"/>
</g>
<path class="st12" d="M409,594.1c0,0,35,69.4,43.8,72.1c8.8,2.7,14.8-1.3,14.8-1.3s72.8-13.5,59.3,2S395.5,673,395.5,673l-29.7-66.7
	L409,594.1z"/>
<path class="st2" d="M308.6,595.5c0,0,56.6-37.7,72.1-37.7c0,0,22.9-7.4,36.4,43.8c0,0-46.5,8.1-45.8,30.3l-8.8-18.9l-37.7,41.8
	l-45.8-31L308.6,595.5z"/>
<path class="st13" d="M308.6,594.1c0,0,56.6-37.7,72.1-37.7c0,0,22.9-7.4,36.4,43.8c0,0-46.5,8.1-45.8,30.3l-8.8-18.9l-37.7,41.8
	l-45.8-31L308.6,594.1z"/>
<path class="st12" d="M370.6,575.2c-3.4,16.2-20.9,18.9-20.9,18.9l-24.9-15.5c0,0-3.5-23.2-6.5-37.4c-1.1-5.4-2.2-9.5-2.9-10.5
	c-2.7-3.4,39.8-2.7,39.8-2.7c3,5,5.7,10.2,8.1,15.5C367.9,553.7,372.4,566.6,370.6,575.2z"/>
<path class="st12" d="M262.8,453.2l-14.2,67.4l-34.4-8.8c0,0-31.7-24.9-22.2-40.4c3.1-5.1,4.7-12.4,5.4-20.1
	c1.5-15.7-0.7-32.5-0.7-32.5s37.7-10.1,30.3,17.5c-3,11.4,2.4,16.2,9.9,18C247.8,457,262.8,453.2,262.8,453.2z"/>
<path class="st2" d="M237,454.4c-5.4,2.8-11.3,4.2-17.4,4.2c-8.3,0-16.3-5.2-22.6-9.8c0.9-10,0.8-20-0.3-30c0,0,37.7-10.1,30.3,17.5
	C224,447.7,229.5,452.6,237,454.4z"/>
<circle class="st12" cx="219.6" cy="419.5" r="37.7"/>
<path class="st2" d="M216.8,498.3l10.2,14.3l5.8-21.1c2.2-8.4,3.4-17.1,3.5-25.9c0-3.7,1.3-7.3,3.5-10.3c10.5-5.7,18.3-8.8,31.5-7.4
	c13.1,1.4,25.6,6.5,36,14.6c39.3,30.2,57.8,80.4,57.8,80.4s-53.9-10.8-51.2,1.3c0,0-23.6-37.7-29-31.7c-5.4,6.1,11.5,86.3,11.5,86.3
	l-110.5,8.1l-29-76.8l1.3-57.3c0,0,28.6-13.1,34.7-13.1c2.1,0,1.8-0.7,2.7,2.7C199.2,475.6,208.8,487.2,216.8,498.3z"/>
<path class="st2" d="M363.2,543.6c-9.4-1.7-35.9-6-44.9-2.4c-1.1-5.4-2.2-9.5-2.9-10.5c-2.7-3.4,39.8-2.7,39.8-2.7
	C358.1,533.1,360.8,538.3,363.2,543.6z"/>
<path class="st14" d="M218.2,497.6l10.2,14.3l5.8-21.1c2.2-8.4,3.4-17.1,3.5-25.9c0-3.7,1.3-7.3,3.5-10.3
	c10.5-5.7,18.3-8.8,31.5-7.4c13.1,1.4,25.6,6.5,36,14.6c39.3,30.2,57.8,80.4,57.8,80.4s-53.9-10.8-51.2,1.3c0,0-23.6-37.7-29-31.7
	c-5.4,6.1,11.5,86.3,11.5,86.3l-110.5,8.1l-29-76.8l1.3-57.3c0,0,28.6-13.1,34.7-13.1c2.1,0,1.8-0.7,2.7,2.7
	C200.5,474.9,210.2,486.5,218.2,497.6z"/>
<path class="st2" d="M193.4,446.2c-3.8,0.7-8.2-0.6-10-4c-0.7-1.7-1.2-3.4-1.5-5.2c-2-7.7-8.4-13.4-11.5-20.7
	c-5.3-12.2-0.6-26.3,4-38.8c2.3-6.1,4.8-12.5,9.7-16.9c7.5-6.7,18.8-6.9,28.8-5.5c4,0.5,8.1,1.3,12.2,0.9s8.2-1.8,10.8-5
	c2.2,1.4,1.4,4.7,0.9,7.2c-0.4,2.5-0.1,5.5,2,7s5.8,0.3,5.6-2.3c-1.8,5.4,2.2,11.4,7.4,13.7c1.7,0.8,3.5,1.3,5.4,1.6
	c6.5,0.9,11.2,6.5,11.2,13.1l0,0.1c0.1,0.7-0.1,1.4-0.5,2c-0.4,0.5-1,0.9-1.6,1.1c-5.2,2.4-9.5,6.5-12.2,11.6
	c-1.4,2.7-2.4,5.9-5,7.6c-3.2,2-7.3,1-11.1,1.3c-6.4,0.6-11.7,5-13.6,11.1c-0.9,3.1-0.8,6.5-2.7,9.3c-0.8,1.3-2.2,2.1-3.7,2.3
	c-2.9,0.3-4.3-2.3-6.4-3.7c-4.9-3.2-8.1,1-9.6,5C200.3,443.3,199.1,445.2,193.4,446.2z"/>
<path class="st15" d="M193.4,445.5c-3.8,0.7-8.2-0.6-10-4c-0.7-1.7-1.2-3.4-1.5-5.2c-2-7.7-8.4-13.4-11.5-20.7
	c-5.3-12.2-0.6-26.3,4-38.8c2.3-6.1,4.8-12.5,9.7-16.9c7.5-6.7,18.8-6.9,28.8-5.5c4,0.5,8.1,1.3,12.2,0.9s8.2-1.8,10.8-5
	c2.2,1.4,1.4,4.7,0.9,7.2c-0.4,2.5-0.1,5.5,2,7s5.8,0.3,5.6-2.3c-1.8,5.4,2.2,11.4,7.4,13.7c1.7,0.8,3.5,1.3,5.4,1.6
	c6.5,0.9,11.2,6.5,11.2,13.1l0,0.1c0.1,0.7-0.1,1.4-0.5,2c-0.4,0.5-1,0.9-1.6,1.1c-5.2,2.4-9.5,6.5-12.2,11.6
	c-1.4,2.7-2.4,5.9-5,7.6c-3.2,2-7.3,1-11.1,1.3c-6.4,0.6-11.7,5-13.6,11.1c-0.9,3.1-0.8,6.5-2.7,9.3c-0.8,1.3-2.2,2.1-3.7,2.3
	c-2.9,0.3-4.3-2.3-6.4-3.7c-4.9-3.2-8.1,1-9.6,5C200.3,442.6,199.1,444.5,193.4,445.5z"/>
<g class="st7">
	<path d="M300.6,461.1c36.4,27.9,54.9,73,57.5,79.6c5,0.8,8.4,1.5,8.4,1.5s-18.5-50.2-57.8-80.4c-10.4-8.1-22.9-13.1-36-14.6
		c-1.8-0.2-3.6-0.3-5.2-0.3C279.6,448.7,291,453.6,300.6,461.1z"/>
	<path d="M189,461c3.5,13.2,13.1,24.8,21.1,35.9l10.2,14.3l2.1-7.7l-4.3-5.9c-8-11.1-17.6-22.7-21.1-35.9c-0.9-3.4-0.6-2.7-2.7-2.7
		c-1.9,0.2-3.8,0.6-5.6,1.3C188.8,460.5,188.9,460.7,189,461z"/>
	<path d="M311.8,538c2.2,3.3,3.6,5.5,3.6,5.5c-1.2-5.3,8.4-6.2,19.6-5.6C326.2,537,317.1,536.6,311.8,538z"/>
	<path d="M285.6,514.1c-3.2-3-5.9-4.4-7.3-2.8c-5.4,6.1,11.5,86.3,11.5,86.3L186.8,605l0.5,1.2l110.5-8.1
		C297.8,598.2,283.1,528.3,285.6,514.1z"/>
</g>
<path class="st12" d="M183.4,674.5c-6.5,5.3-24.8,18.1-47.4,13.3c-22.5-4.8-3.6-15.6,5-19.8c1.7-0.8,2.4-2.8,1.6-4.5
	c-0.1-0.2-0.3-0.4-0.4-0.6c-5-6.1-10.6-11.5-16.9-16.1c-5.5-4-12.1-11.3-17.9-18.3v0c-3-3.7-5.8-7.2-8.1-10.2
	c-1.1-1.5-0.8-3.6,0.7-4.7c0.8-0.6,1.9-0.8,2.9-0.6l44.2,12c0.7,0.2,1.3,0.6,1.8,1.2l14.5,18.2l20.5,25.7
	C185.1,671.2,184.9,673.3,183.4,674.5z"/>
<path class="st2" d="M163.4,644.1c-36.9-26.9-50.8-22.1-56-15.8c-3-3.7-5.8-7.2-8.1-10.2c-1.1-1.5-0.8-3.6,0.7-4.7
	c0.8-0.6,1.9-0.8,2.9-0.6l44.2,12c0.7,0.2,1.3,0.6,1.8,1.2L163.4,644.1z"/>
<path class="st13" d="M132.7,561.1c0,0-59.3-19.5-49.9,21.6s21.6,51.2,21.6,51.2s3.4-32.4,60.7,10.1l-20.2-32.4l23.6-29.7
	L132.7,561.1z"/>
<path class="st2" d="M118.5,524c0,0-5.4,28.3,14.2,62.7c15.5,27.2-2.9,39.7-11.2,43.7c-2.2,1.1-4.9,0.6-6.6-1.1
	c-5.5-5.4-15.9-19.1-9.8-40.5l4-10.8l-22.2-16.2c0,0-6-22.3-3.3-27.3s24.2-18.5,24.2-18.5L118.5,524z"/>
<path class="st12" d="M118.5,522.7c0,0-5.4,28.3,14.2,62.7c15.5,27.2-2.9,39.7-11.2,43.7c-2.2,1.1-4.9,0.6-6.6-1.1
	c-5.5-5.4-15.9-19.1-9.8-40.5l4-10.8l-22.2-16.2c0,0-6-22.3-3.3-27.3s24.2-18.5,24.2-18.5L118.5,522.7z"/>
<path class="st14" d="M167.7,468.7c0,0-48.5,27.6-68.7,45.8c-20.2,18.2-16.2,24.3-16.2,24.3s19.5-36.4,36.4-4.7
	c0,0,47.2-34.4,60-19.5C192,529.4,167.7,468.7,167.7,468.7z"/>
<polygon class="st13" points="149.5,627.8 190,619.7 185.3,640.6 156,637.6 "/>
<path class="st16" d="M219.6,538.8l-1.3,14.8l-48.5-8.1l-14.8-9.4l-22.2-8.1c2.6-7.2,3-15.1,1.2-22.5c-0.8-3.2-2.1-6.3-3.9-9.1
	c-9.4-15.5,39.8-8.8,39.8-8.8c-0.5,3.5-0.8,7-0.7,10.6c0.1,11.3,3.3,27.1,21,24.5l14.8,8.8L219.6,538.8z"/>
<path class="st16" d="M171.8,517.9c0,0,24.9-10.8,37.1,11.5c12.1,22.2,17.5,20.9,17.5,20.9l-24.3-15.5L171.8,517.9z"/>
<path class="st17" d="M192.7,630.5c0,0-18.9,15.5-8.1,35s78.2,16.2,78.2,16.2s-42.8-16.1-32.2-70
	C230.6,611.7,200.1,620.4,192.7,630.5z"/>
<path class="st17" d="M282.3,653.4l-6.7,25.6l23.6-4.7c0,0-10.1-21.6-8.8-27.6S282.3,653.4,282.3,653.4z"/>
<path class="st16" d="M301.2,622.4c0,0,61.3,6.1,78.2,15.5l12.8,4c0,0,4.7-1.3,14.8,7.4l52.6,12.1l40.4,8.1c0,0,37.1,6.7,39.8,5.4
	s20.9,10.1,3.4,15.5s-53.9-2.7-53.9-2.7s-27-3.4-33-1.3s-47.2-4-47.2-4l-40.4,2.7c0,0-6.7-10.1-24.3-6.7
	c-12.5,2.4-34.3-1.4-45.7-3.7c-4.5-0.9-8.1-4.5-8.9-9.1l-4-21.6L301.2,622.4z"/>
<path class="st18" d="M301.2,622.4c0,0,61.3,6.1,78.2,15.5l12.8,4c0,0,4.7-1.3,14.8,7.4l52.6,12.1l40.4,8.1c0,0,37.1,6.7,39.8,5.4
	s20.9,10.1,3.4,15.5s-53.9-2.7-53.9-2.7s-27-3.4-33-1.3s-47.2-4-47.2-4l-40.4,2.7c0,0-6.7-10.1-24.3-6.7
	c-12.5,2.4-34.3-1.4-45.7-3.7c-4.5-0.9-8.1-4.5-8.9-9.1l-4-21.6L301.2,622.4z"/>
<path class="st2" d="M169,498.2c-9.7,8.3-23,11.1-35.1,7.3c-0.8-3.2-2.1-6.3-3.9-9.1c-9.4-15.5,39.8-8.8,39.8-8.8
	C169.2,491.1,169,494.6,169,498.2z"/>
<circle class="st16" cx="144.8" cy="468.7" r="37.1"/>
<path class="st2" d="M129.3,523.3c0,0,28.3,15.5,29.7,25.6s-4,22.2-4,22.2s12.8,76.8,29,82.2l43.1-41.8l36.4-16.2
	c0,0-21.6-1.3-23.6-21.6s2.7-27-21.6-36.4s-37.4-20.6-37.4-20.6l-6.3,1.6l32.2,17c0,0,18.2,10.8-29,2.7L133.4,522L129.3,523.3z"/>
<path class="st19" d="M128.6,522c0,0,28.3,15.5,29.7,25.6s-4,22.2-4,22.2s12.8,76.8,29,82.2l43.1-41.8l36.4-16.2
	c0,0-21.6-1.3-23.6-21.6s2.7-27-21.6-36.4s-37.4-20.6-37.4-20.6l-6.3,1.6l32.2,17c0,0,18.2,10.8-29,2.7l-44.5-16.2L128.6,522z"/>
<path class="st2" d="M138.8,527.4c0,0-27.6-10.1-20.9,22.2s41.8,88.3,41.8,88.3l82.2-28.3c0,0,25.6-19.5,18.9-21.6
	s-42.5,10.8-42.5,10.8l-48.5,7.4l-11.5-32.4c0,0,10.8-7.4,7.4-16.9c0-0.1-0.1-0.2-0.1-0.3c-4.6-12.6-13.8-22.9-25.8-28.8
	L138.8,527.4z"/>
<path class="st16" d="M137.4,526c0,0-27.6-10.1-20.9,22.2s41.8,88.3,41.8,88.3l82.2-28.3c0,0,25.6-19.5,18.9-21.6
	s-42.5,10.8-42.5,10.8l-48.5,7.4l-11.5-32.4c0,0,10.8-7.4,7.4-16.9c0-0.1-0.1-0.2-0.1-0.3c-4.6-12.6-13.8-22.9-25.8-28.8L137.4,526z
	"/>
<path class="st2" d="M140,415.6c-3.2-0.9-6.5-1.3-9.9-1c-3.1,0.5-6.2,1.4-9,2.9c-4.5,2.1-8.9,4.6-13,7.5c-2.8,1.9-5.5,4.1-8.6,5.2
	c-4.8,1.7-10.3,0.9-14.7,3.4c-6.2,3.5-7.5,11.8-6.6,18.8s3.4,14,2.3,21c-1.7,10.4-10.7,17.9-19,24.4c-2.6,2.1-5.4,4.5-5.8,7.8
	c-0.3,2.1,0.5,4.1,1.1,6.1c3.5,10.9,3.3,22.6-0.5,33.3c-3.9,10.7-11.7,19.7-21.8,25.1c-3.8,2-8.5,4-9.4,8.3
	c-1.1,5.4,4.6,9.5,9.8,11.4c4.2,1.5,8.5,2.7,12.9,3.4c3.9,0.6,8,0.9,11.6-0.8c4.1-2,6.6-6.2,8.8-10.2c8.5-15.7,18.9-23.3,24.4-40.3
	c1.2-3.7,3.1-8,6.9-8.4c2.4-0.2,4.6,1.3,6.6,2.6c9.8,6.2,20.1-0.7,29.2-7.9c2.1-1.7,3.9-3.7,6.3-5c5-2.7,12.3-2,15.3-6.8
	c0.7-1.3,1.2-2.7,1.4-4.1c1.2-5.3,2.5-10.8,1-16c-1.3-4.8-4.7-8.8-6.8-13.4s-2.1-10.8,2-13.7c1.2-0.9,2.7-1.3,3.9-2.2
	c3.5-2.6,3.6-7.7,3.6-12.1c-0.1-1.1,0.1-2.2,0.5-3.2c0.6-0.9,1.5-1.7,2.5-2.3c3.9-2.7,7-6.5,8.8-10.9c1.8-4.8-2.8-7-6.4-9.7
	C159.3,422.5,150,418.1,140,415.6z"/>
<path class="st20" d="M139.3,414.9c-3.2-0.9-6.5-1.3-9.9-1c-3.1,0.5-6.2,1.4-9,2.9c-4.5,2.1-8.9,4.6-13,7.5
	c-2.8,1.9-5.5,4.1-8.6,5.2c-4.8,1.7-10.3,0.9-14.7,3.4c-6.2,3.5-7.5,11.8-6.6,18.8s3.4,14,2.3,21c-1.7,10.4-10.7,17.9-19,24.4
	c-2.6,2.1-5.4,4.5-5.8,7.8c-0.3,2.1,0.5,4.1,1.1,6.1c3.5,10.9,3.3,22.6-0.5,33.3c-3.9,10.7-11.7,19.7-21.8,25.1
	c-3.8,2-8.5,4-9.4,8.3c-1.1,5.4,4.6,9.5,9.8,11.4c4.2,1.5,8.5,2.7,12.9,3.4c3.9,0.6,8,0.9,11.6-0.8c4.1-2,6.6-6.2,8.8-10.2
	c8.5-15.7,18.9-23.3,24.4-40.3c1.2-3.7,3.1-8,6.9-8.4c2.4-0.2,4.6,1.3,6.6,2.6c9.8,6.2,20.1-0.7,29.2-7.9c2.1-1.7,3.9-3.7,6.3-5
	c5-2.7,12.3-2,15.3-6.8c0.7-1.3,1.2-2.7,1.4-4.1c1.2-5.3,2.5-10.8,1-16c-1.3-4.8-4.7-8.8-6.8-13.4s-2.1-10.8,2-13.7
	c1.2-0.9,2.7-1.3,3.9-2.2c3.5-2.6,3.6-7.7,3.6-12.1c-0.1-1.1,0.1-2.2,0.5-3.2c0.6-0.9,1.5-1.7,2.5-2.3c3.9-2.7,7-6.5,8.8-10.9
	c1.8-4.8-2.8-7-6.4-9.7C158.7,421.8,149.3,417.4,139.3,414.9z"/>
<path class="st16" d="M453.2,710.4c-18.3,3.9-71.7,2.2-79.5-4c-12-9.6-9-18.1-8.2-19.9h-0.2c0,0,6.7-16.2,0-28.3
	c0,0-0.7-14.8-14.8-26.3S320.7,588,320.7,588l-8.1,16.9c0,0-12.2,37-24.8,53.4c-2.5,3.3-4.2,7.1-5,11.1c-0.8,4.5-3.7,10.1-12.7,11.6
	l-0.5,0.1c-12.8,2.1-25.7-3.3-33-14c-6-8.7-12.9-20.7-14.4-32.5c-1-8,1.4-16,6.6-22.2l0.1-0.1c14.5-17.2,64.9-76.2,72.9-79.6
	c0,0,36.4-35,50.6,12.1s18.9,61.3,18.9,61.3s16.9,30.2,21.6,40.4c4.8,10.6,24.8,36.9,26.8,39.5c1.9,1.3,19.7,13.4,25.4,13.4
	C447.6,699.6,466.4,707.6,453.2,710.4z"/>
<g class="st21">
	<path class="st22" d="M368,667.6c0.6-5.2,0.3-11.5-2.8-16.9c0,0-0.7-14.8-14.8-26.3s-29.7-43.8-29.7-43.8l-8.1,16.9
		c0,0-12.2,37-24.8,53.4c-2.5,3.3-4.2,7.1-5,11.1c-0.8,4.5-3.7,10.1-12.7,11.6l-0.5,0.1c-12.8,2.1-25.7-3.3-33-14
		c-6-8.6-12.7-20.5-14.3-32.1c-0.4,2.6-0.4,5.1-0.1,7.7c1.5,11.7,8.4,23.8,14.4,32.5c7.4,10.7,20.2,16.2,33,14l0.5-0.1
		c9-1.6,11.8-7.2,12.7-11.6c0.8-4,2.5-7.9,5-11.1c12.6-16.4,24.8-53.4,24.8-53.4l8.1-16.9c0,0,15.5,32.4,29.7,43.8
		s14.8,26.3,14.8,26.3C366.7,661.5,367.6,664.5,368,667.6z"/>
</g>
<path class="st18" d="M192.3,580.3c0,0,29-0.7,27-10.1"/>
<path class="st4" d="M667.7,614c0,0,45-31,89-20s11,49,11,49L667.7,614z"/>
<path class="st5" d="M649.7,594c0,0,44-19,74,1s90,30,90,30"/>
</svg>
